<svg xmlns="http://www.w3.org/2000/svg" viewBox="100 100 1700 460">
  <!-- Icono burbuja chat con sparkles -->
  <g transform="translate(112.65 89.30) scale(4.3)">
    <path d="M 38 12 L 66 12 Q 90 12 90 36 L 90 62 Q 90 86 66 86 L 38 86 Q 14 86 14 62 L 14 36 Q 14 12 38 12 Z" fill="#00C896"/>
    <path d="M 33 83 L 52 83 L 38 98.5 Q 35 101.5 35.2 96.5 Z" fill="#00C896"/>
    <path d="M 49 31 Q 52.36 48.64 70 52 Q 52.36 55.36 49 73 Q 45.64 55.36 28 52 Q 45.64 48.64 49 31 Z" fill="#FFFFFF"/>
    <path d="M 71 22.5 Q 72.36 29.64 79.5 31 Q 72.36 32.36 71 39.5 Q 69.64 32.36 62.5 31 Q 69.64 29.64 71 22.5 Z" fill="#FFFFFF"/>
  </g>
  <!-- Texto "Recepc" en blanco -->
  <g transform="translate(579.65 385.00) scale(0.24390 -0.24390)" fill="#FFFFFF">
    <path transform="translate(0 0)" d="M436 0 276 278H189V0H75V695H315Q395 695 450.5 667.0Q506 639 533.5 592.0Q561 545 561 487Q561 419 521.5 363.5Q482 308 400 288L572 0ZM189 369H315Q379 369 411.5 401.0Q444 433 444 487Q444 541 412.0 571.5Q380 602 315 602H189Z"/>
    <path transform="translate(622 0)" d="M576 233H155Q160 167 204.0 127.0Q248 87 312 87Q404 87 442 164H565Q540 88 474.5 39.5Q409 -9 312 -9Q233 -9 170.5 26.5Q108 62 72.5 126.5Q37 191 37 276Q37 361 71.5 425.5Q106 490 168.5 525.0Q231 560 312 560Q390 560 451.0 526.0Q512 492 546.0 430.5Q580 369 580 289Q580 258 576 233ZM461 325Q460 388 416.0 426.0Q372 464 307 464Q248 464 206.0 426.5Q164 389 156 325Z"/>
    <path transform="translate(1229 0)" d="M307 560Q407 560 472.5 512.5Q538 465 561 377H438Q423 418 390.0 441.0Q357 464 307 464Q237 464 195.5 414.5Q154 365 154 276Q154 187 195.5 137.0Q237 87 307 87Q406 87 438 174H561Q537 90 471.0 40.5Q405 -9 307 -9Q228 -9 167.0 26.5Q106 62 71.5 126.5Q37 191 37 276Q37 361 71.5 425.5Q106 490 167.0 525.0Q228 560 307 560Z"/>
    <path transform="translate(1819 0)" d="M576 233H155Q160 167 204.0 127.0Q248 87 312 87Q404 87 442 164H565Q540 88 474.5 39.5Q409 -9 312 -9Q233 -9 170.5 26.5Q108 62 72.5 126.5Q37 191 37 276Q37 361 71.5 425.5Q106 490 168.5 525.0Q231 560 312 560Q390 560 451.0 526.0Q512 492 546.0 430.5Q580 369 580 289Q580 258 576 233ZM461 325Q460 388 416.0 426.0Q372 464 307 464Q248 464 206.0 426.5Q164 389 156 325Z"/>
    <path transform="translate(2426 0)" d="M381 560Q453 560 512.5 524.5Q572 489 606.0 425.0Q640 361 640 278Q640 195 606.0 129.5Q572 64 512.5 27.5Q453 -9 381 -9Q318 -9 269.0 16.5Q220 42 189 80V-262H75V551H189V470Q218 508 268.0 534.0Q318 560 381 560ZM356 461Q313 461 274.5 439.0Q236 417 212.5 375.0Q189 333 189 276Q189 219 212.5 176.5Q236 134 274.5 112.0Q313 90 356 90Q400 90 438.5 112.5Q477 135 500.5 178.0Q524 221 524 278Q524 335 500.5 376.5Q477 418 438.5 439.5Q400 461 356 461Z"/>
    <path transform="translate(3094 0)" d="M307 560Q407 560 472.5 512.5Q538 465 561 377H438Q423 418 390.0 441.0Q357 464 307 464Q237 464 195.5 414.5Q154 365 154 276Q154 187 195.5 137.0Q237 87 307 87Q406 87 438 174H561Q537 90 471.0 40.5Q405 -9 307 -9Q228 -9 167.0 26.5Q106 62 71.5 126.5Q37 191 37 276Q37 361 71.5 425.5Q106 490 167.0 525.0Q228 560 307 560Z"/>
  </g>
  <!-- Texto "IA" en verde menta -->
  <g transform="translate(1474.62 385.00) scale(0.26667 -0.26667)" fill="#00C896">
    <path transform="translate(0 0)" d="M233 702V0H62V702Z"/>
    <path transform="translate(285 0)" d="M499 124H237L195 0H16L270 702H468L722 0H541ZM455 256 368 513 282 256Z"/>
  </g>
</svg>
